<mxfile host="65bd71144e">
    <diagram name="Сторінка-1" id="ijb-Jd9aU0uCA5Vn6Vi3">
        <mxGraphModel dx="582" dy="563" grid="1" gridSize="10" guides="1" tooltips="1" connect="1" arrows="1" fold="1" page="1" pageScale="1" pageWidth="827" pageHeight="1169" math="1" shadow="0">
            <root>
                <mxCell id="0"/>
                <mxCell id="1" parent="0"/>
                <mxCell id="9vuuAndYxhFPuXdxF5XR-4" value="" style="edgeStyle=orthogonalEdgeStyle;rounded=0;orthogonalLoop=1;jettySize=auto;html=1;" parent="1" source="9vuuAndYxhFPuXdxF5XR-2" target="9vuuAndYxhFPuXdxF5XR-3" edge="1">
                    <mxGeometry relative="1" as="geometry"/>
                </mxCell>
                <mxCell id="9vuuAndYxhFPuXdxF5XR-2" value="&lt;font style=&quot;font-size: 24px;&quot;&gt;Початок&lt;/font&gt;" style="rounded=1;whiteSpace=wrap;html=1;fillColor=#0050ef;fontColor=#ffffff;strokeColor=#00189C;strokeWidth=2;" parent="1" vertex="1">
                    <mxGeometry x="278.38" y="330" width="270" height="70" as="geometry"/>
                </mxCell>
                <mxCell id="9vuuAndYxhFPuXdxF5XR-6" value="" style="edgeStyle=orthogonalEdgeStyle;rounded=0;orthogonalLoop=1;jettySize=auto;html=1;" parent="1" source="9vuuAndYxhFPuXdxF5XR-3" target="9vuuAndYxhFPuXdxF5XR-5" edge="1">
                    <mxGeometry relative="1" as="geometry"/>
                </mxCell>
                <mxCell id="9vuuAndYxhFPuXdxF5XR-3" value="Ввід&lt;div style=&quot;font-size: 24px;&quot;&gt;a, b&lt;/div&gt;" style="shape=parallelogram;perimeter=parallelogramPerimeter;whiteSpace=wrap;html=1;fixedSize=1;fillColor=#0050ef;fontColor=#ffffff;strokeColor=#001DBC;strokeWidth=2;fontSize=24;" parent="1" vertex="1">
                    <mxGeometry x="260.25" y="420" width="307.5" height="70" as="geometry"/>
                </mxCell>
                <mxCell id="9vuuAndYxhFPuXdxF5XR-8" value="" style="edgeStyle=orthogonalEdgeStyle;rounded=0;orthogonalLoop=1;jettySize=auto;html=1;" parent="1" source="9vuuAndYxhFPuXdxF5XR-5" target="9vuuAndYxhFPuXdxF5XR-7" edge="1">
                    <mxGeometry relative="1" as="geometry"/>
                </mxCell>
                <mxCell id="9vuuAndYxhFPuXdxF5XR-5" value="hypotenuse =&lt;span style=&quot;font-family: &amp;quot;Times New Roman&amp;quot;, serif; background-color: initial;&quot;&gt;√&lt;/span&gt;(a^2 + a^b)&lt;br&gt;&lt;p class=&quot;MsoNormal&quot;&gt;&lt;span lang=&quot;EN-US&quot;&gt;&lt;/span&gt;&lt;/p&gt;" style="whiteSpace=wrap;html=1;fontSize=24;fillColor=#0050ef;strokeColor=#001DBC;fontColor=#ffffff;strokeWidth=2;align=center;" parent="1" vertex="1">
                    <mxGeometry x="265.5" y="510" width="295" height="90" as="geometry"/>
                </mxCell>
                <mxCell id="9vuuAndYxhFPuXdxF5XR-10" value="" style="edgeStyle=orthogonalEdgeStyle;rounded=0;orthogonalLoop=1;jettySize=auto;html=1;" parent="1" source="9vuuAndYxhFPuXdxF5XR-7" target="9vuuAndYxhFPuXdxF5XR-9" edge="1">
                    <mxGeometry relative="1" as="geometry"/>
                </mxCell>
                <mxCell id="9vuuAndYxhFPuXdxF5XR-7" value="Вивід hypotenuse" style="shape=parallelogram;perimeter=parallelogramPerimeter;whiteSpace=wrap;html=1;fixedSize=1;fontSize=24;fillColor=#0050ef;strokeColor=#001DBC;fontColor=#ffffff;strokeWidth=2;align=center;" parent="1" vertex="1">
                    <mxGeometry x="259" y="620" width="308.75" height="80" as="geometry"/>
                </mxCell>
                <mxCell id="9vuuAndYxhFPuXdxF5XR-9" value="Кінець" style="rounded=1;whiteSpace=wrap;html=1;fontSize=24;fillColor=#0050ef;strokeColor=#001DBC;fontColor=#ffffff;strokeWidth=2;" parent="1" vertex="1">
                    <mxGeometry x="280.87" y="730" width="265" height="70" as="geometry"/>
                </mxCell>
            </root>
        </mxGraphModel>
    </diagram>
</mxfile>